<?xml version="1.0" encoding="UTF-8" standalone="no"?>
<!-- Created with Inkscape (http://www.inkscape.org/) -->

<svg
   xmlns:dc="http://purl.org/dc/elements/1.1/"
   xmlns:cc="http://creativecommons.org/ns#"
   xmlns:rdf="http://www.w3.org/1999/02/22-rdf-syntax-ns#"
   xmlns:svg="http://www.w3.org/2000/svg"
   xmlns="http://www.w3.org/2000/svg"
   xmlns:sodipodi="http://sodipodi.sourceforge.net/DTD/sodipodi-0.dtd"
   xmlns:inkscape="http://www.inkscape.org/namespaces/inkscape"
   width="320"
   height="180"
   viewBox="0 0 320 180"
   version="1.1"
   id="svg8"
   inkscape:version="0.92.3 (2405546, 2018-03-11)"
   sodipodi:docname="afrd_tv.svg">
  <defs
     id="defs2" />
  <sodipodi:namedview
     id="base"
     pagecolor="#ffffff"
     bordercolor="#666666"
     borderopacity="1.0"
     inkscape:pageopacity="0.0"
     inkscape:pageshadow="2"
     inkscape:zoom="1.1960228"
     inkscape:cx="-42.664438"
     inkscape:cy="99.602604"
     inkscape:document-units="px"
     inkscape:current-layer="layer1"
     showgrid="true"
     units="px"
     width="64px"
     inkscape:pagecheckerboard="true"
     borderlayer="false"
     showguides="false"
     inkscape:lockguides="false"
     inkscape:window-width="1920"
     inkscape:window-height="1021"
     inkscape:window-x="0"
     inkscape:window-y="36"
     inkscape:window-maximized="1"
     inkscape:snap-global="false">
    <inkscape:grid
       type="xygrid"
       id="grid4518"
       empspacing="8"
       dotted="false" />
  </sodipodi:namedview>
  <metadata
     id="metadata5">
    <rdf:RDF>
      <cc:Work
         rdf:about="">
        <dc:format>image/svg+xml</dc:format>
        <dc:type
           rdf:resource="http://purl.org/dc/dcmitype/StillImage" />
        <dc:title></dc:title>
      </cc:Work>
    </rdf:RDF>
  </metadata>
  <g
     inkscape:label="Layer 1"
     inkscape:groupmode="layer"
     id="layer1"
     transform="translate(0,-164.06667)">
    <path
       inkscape:connector-curvature="0"
       id="path1519"
       d="m 144.72863,165.81243 c -37.49812,0.3388 -75.013752,-0.0994 -112.497717,0.92568 -15.001264,2.50914 -30.4947013,16.05923 -28.3701104,33.8617 -0.077531,38.74822 -0.7323333,77.53748 0.4904878,116.26186 4.2915939,17.55787 23.1012736,26.24871 38.8420786,24.92401 80.738601,0.6044 161.492761,0.90157 242.227211,-0.21798 14.58449,-1.7314 31.73482,-13.56584 30.58223,-31.26183 0.30776,-39.3102 0.77671,-78.66046 -0.23758,-117.95356 -3.41377,-18.07571 -22.55441,-27.56309 -38.46749,-26.00625 -44.18863,-0.30311 -88.3793,-0.56537 -132.56911,-0.53363 z"
       style="stroke-width:0.02863647;fill:#6c2970;fill-opacity:1"
       sodipodi:nodetypes="cccccccccc" />
    <path
       style="stroke-width:0.02863647;fill:#3d392a;fill-opacity:1"
       id="path1517"
       d="m 98.936107,181.31105 c -28.757891,0.59125 -43.106533,2.85345 -54.03549,8.41383 -13.311891,6.78916 -19.660001,19.04101 -21.676084,42.26708 -0.794312,9.34955 -0.794312,35.03319 0.06061,44.18481 2.379743,26.96383 10.562106,39.51131 29.552206,45.41615 15.082344,4.67349 29.979667,5.56038 87.071181,5.21591 24.36207,-0.14653 42.31541,-0.44215 46.03815,-0.78663 20.27248,-1.86888 31.08022,-5.16706 39.3838,-11.90738 11.66266,-9.49608 15.81605,-25.14379 15.87666,-59.97905 0,-27.75046 -2.25853,-41.28251 -8.60983,-52.00995 -6.89998,-11.61175 -18.19578,-16.92534 -41.46049,-19.58342 -12.94504,-1.47813 -53.67184,-2.01798 -92.200713,-1.23135 z"
       inkscape:connector-curvature="0"
       sodipodi:nodetypes="cccccccccccc" />
    <path
       style="fill:#ffffff;fill-opacity:1;stroke:none;stroke-width:2.97708774px;stroke-linecap:butt;stroke-linejoin:miter;stroke-opacity:1"
       d="m 129.38328,316.01711 -6.6461,-26.59611 -19.06034,19.71157 -5.151763,-2.97705 7.541573,-26.35772 -26.363523,7.53577 -2.97707,-5.15174 19.71159,-19.06034 -26.5961,-6.64614 v -5.95417 l 26.5961,-6.64612 -19.71159,-19.06033 2.97707,-5.15176 26.363523,7.54154 -7.541573,-26.36347 5.151763,-2.97709 19.06034,19.71156 6.6461,-26.59607 h 5.95418 l 6.64613,26.59607 19.06035,-19.71156 5.15174,2.97709 -7.54156,26.36347 26.3635,-7.54154 2.97708,5.15176 -19.71156,19.06033 26.59607,6.64612 v 5.95417 l -26.59607,6.64614 19.71156,19.06034 -2.97708,5.15174 -26.3635,-7.54156 7.54156,26.36351 -5.15174,2.97705 -19.06035,-19.71157 -6.64613,26.59611 z"
       id="path855"
       inkscape:connector-curvature="0"
       inkscape:transform-center-y="62.624707" />
    <path
       style="stroke-width:0.02863647"
       d="m 144.72863,165.81243 c -37.49812,0.3388 -75.013752,-0.0994 -112.497717,0.92568 -15.001264,2.50914 -30.4947013,16.05923 -28.3701104,33.8617 -0.077531,38.74822 -0.7323333,77.53748 0.4904878,116.26186 4.2915939,17.55787 23.1012736,26.24871 38.8420786,24.92401 80.738601,0.6044 161.492761,0.90157 242.227211,-0.21798 14.58449,-1.7314 31.73482,-13.56584 30.58223,-31.26183 0.30776,-39.3102 0.77671,-78.66046 -0.23758,-117.95356 -3.41377,-18.07571 -22.55441,-27.56309 -38.46749,-26.00625 -44.18863,-0.30311 -88.3793,-0.56537 -132.56911,-0.53363 z m 140.07312,10.82512 c 10.43902,1.67989 20.61505,11.32428 18.94449,23.53644 0.37413,38.07292 0.72614,76.17628 -0.26064,114.23646 -3.08305,14.5854 -18.99377,18.84026 -31.10595,17.65482 -78.06285,0.33587 -156.13483,0.61603 -234.193995,-0.18706 -11.308927,-0.71247 -23.687957,-10.27866 -21.936717,-23.73583 -0.379856,-38.12137 -0.719178,-76.27244 0.260633,-114.38154 2.545133,-13.17013 16.618646,-18.73621 27.891204,-17.40505 79.743095,-0.644 159.502755,-0.93401 239.241805,0.18346 z"
       id="path884"
       inkscape:connector-curvature="0" />
    <path
       inkscape:connector-curvature="0"
       d="m 98.936107,181.31105 c -28.757891,0.59125 -43.106533,2.85345 -54.03549,8.41383 -13.311891,6.78916 -19.660001,19.04101 -21.676084,42.26708 -0.794312,9.34955 -0.794312,35.03319 0.06061,44.18481 2.379743,26.96383 10.562106,39.51131 29.552206,45.41615 15.082344,4.67349 29.979667,5.56038 87.071181,5.21591 24.36207,-0.14653 42.31541,-0.44215 46.03815,-0.78663 20.27248,-1.86888 31.08022,-5.16706 39.3838,-11.90738 11.66266,-9.49608 15.81605,-25.14379 15.87666,-59.97905 0,-27.75046 -2.25853,-41.28251 -8.60983,-52.00995 -6.89998,-11.61175 -18.19578,-16.92534 -41.46049,-19.58342 -12.94504,-1.47813 -53.67184,-2.01798 -92.200713,-1.23135 z m 77.300203,10.38297 c 30.52834,1.42672 41.94856,5.90485 47.1387,18.40347 3.84715,9.15162 5.19014,20.37006 5.19014,43.54471 0,31.34428 -2.68599,44.28506 -10.86835,52.40326 -5.00831,4.96913 -14.34864,8.02052 -29.30977,9.59378 -13.49372,1.37788 -63.80648,1.91772 -93.176843,0.98457 -49.336619,-1.62468 -57.212741,-7.7249 -59.838115,-46.30048 -0.733701,-10.87396 -0.366851,-33.45994 0.673091,-41.5293 3.113445,-24.25691 9.707185,-31.58848 31.443879,-35.18228 5.129528,-0.88689 15.876655,-1.82005 24.422675,-2.11568 10.444073,-0.44215 74.923643,-0.29562 84.324593,0.19795 z"
       id="path886"
       style="stroke-width:0.02863647" />
    <ellipse
       style="fill:#000000;fill-opacity:1;stroke:none;stroke-width:7.84281015;stroke-linecap:butt;stroke-linejoin:miter;stroke-miterlimit:4;stroke-dasharray:none;stroke-dashoffset:0;stroke-opacity:1;paint-order:normal"
       id="path1486"
       cx="273.27731"
       cy="227.15324"
       rx="12.750593"
       ry="13.725835" />
    <ellipse
       cy="286.55685"
       cx="273.27731"
       id="circle1490"
       style="fill:#000000;fill-opacity:1;stroke:none;stroke-width:7.84281015;stroke-linecap:butt;stroke-linejoin:miter;stroke-miterlimit:4;stroke-dasharray:none;stroke-dashoffset:0;stroke-opacity:1;paint-order:normal"
       rx="12.750593"
       ry="13.725835" />
  </g>
</svg>
