<?xml version="1.0" encoding="UTF-8" standalone="no"?>
<!-- Created with Inkscape (http://www.inkscape.org/) -->

<svg
   xmlns:dc="http://purl.org/dc/elements/1.1/"
   xmlns:cc="http://creativecommons.org/ns#"
   xmlns:rdf="http://www.w3.org/1999/02/22-rdf-syntax-ns#"
   xmlns:svg="http://www.w3.org/2000/svg"
   xmlns="http://www.w3.org/2000/svg"
   xmlns:sodipodi="http://sodipodi.sourceforge.net/DTD/sodipodi-0.dtd"
   xmlns:inkscape="http://www.inkscape.org/namespaces/inkscape"
   version="1.1"
   id="svg2"
   width="171.25439"
   height="17.889654"
   viewBox="0 0 171.2544 17.889654"
   sodipodi:docname="text-divider.svg"
   inkscape:version="0.92.3 (2405546, 2018-03-11)">
  <metadata
     id="metadata8">
    <rdf:RDF>
      <cc:Work
         rdf:about="">
        <dc:format>image/svg+xml</dc:format>
        <dc:type
           rdf:resource="http://purl.org/dc/dcmitype/StillImage" />
        <dc:title />
      </cc:Work>
    </rdf:RDF>
  </metadata>
  <defs
     id="defs6" />
  <sodipodi:namedview
     pagecolor="#ffffff"
     bordercolor="#666666"
     borderopacity="1"
     objecttolerance="10"
     gridtolerance="10"
     guidetolerance="10"
     inkscape:pageopacity="0"
     inkscape:pageshadow="2"
     inkscape:window-width="1920"
     inkscape:window-height="1021"
     id="namedview4"
     showgrid="false"
     inkscape:zoom="1.9555921"
     inkscape:cx="-58.907478"
     inkscape:cy="67.908802"
     inkscape:window-x="0"
     inkscape:window-y="36"
     inkscape:window-maximized="1"
     inkscape:current-layer="svg2"
     fit-margin-top="0"
     fit-margin-left="0"
     fit-margin-right="0"
     fit-margin-bottom="0" />
  <g
     id="g818"
     transform="scale(0.32676604)"
     style="stroke:none;fill:#698d6c;fill-opacity:1">
    <path
       sodipodi:nodetypes="sscsccscsccccscsssc"
       style="fill:#698d6c;fill-opacity:1;stroke-width:1.33333337;stroke:none"
       d="m 89.12328,32.506937 c -48.56431,-0.84313 -88.65690003,-1.89113 -89.09465003,-2.32888 -0.43774,-0.43774 4.19668993,-1.16712 10.29875003,-1.62084 10.55004,-0.78443 172.46738,-6.09688 185.82616,-6.09688 6.264,0 6.31636,0.0355 3.93516,2.66667 -2.25078,2.48708 -2.2645,2.83109 -0.20375,5.1082 1.21527,1.34284 1.80825,2.84284 1.31777,3.33333 -0.49049,0.4905 -6.0418,0.7972 -12.33625,0.68159 -6.29444,-0.1156 -51.17888,-0.90004 -99.74319,-1.74319 z m 231.29585,1.20794 c -0.5516,-0.57098 -0.008,-2.13683 1.20665,-3.47967 2.06075,-2.27711 2.04703,-2.62112 -0.20375,-5.1082 -2.38214,-2.63224 -2.32886,-2.66666 4.12668,-2.66556 15.29582,0.003 174.31289,5.31441 185.87333,6.20893 l 12.66667,0.98011 -10,0.88124 c -5.5,0.48468 -40.9,1.27183 -78.66667,1.74921 -37.76667,0.4774 -78.86667,1.22891 -91.33334,1.67003 -12.46667,0.44112 -23.11797,0.33488 -23.66957,-0.23609 z"
       id="path4522"
       inkscape:connector-curvature="0" />
    <path
       inkscape:connector-curvature="0"
       id="path855"
       d="m 260.74083,0 -2.90999,11.645076 -8.34554,-8.630695 -2.2557,1.303514 3.30207,11.540688 -11.54322,-3.299528 -1.30352,2.25569 8.63068,8.345545 -11.64506,2.909996 v 2.607028 l 11.64506,2.909995 -8.63068,8.345545 1.30352,2.25569 11.54322,-3.302062 -3.30207,11.543219 2.2557,1.303514 8.34554,-8.630676 2.90999,11.645056 h 2.60704 l 2.90999,-11.645056 8.34554,8.630676 2.2557,-1.303514 -3.30207,-11.543219 11.54322,3.302062 1.30352,-2.25569 -8.63069,-8.345545 11.64507,-2.909995 v -2.607028 l -11.64507,-2.909996 8.63069,-8.345545 -1.30352,-2.25569 -11.54322,3.302061 3.30207,-11.543221 -2.2557,-1.303514 -8.34554,8.630695 L 263.34787,0 Z"
       style="fill:#698d6c;fill-opacity:1;stroke:none;stroke-width:1.30351424px;stroke-linecap:butt;stroke-linejoin:miter;stroke-opacity:1" />
  </g>
</svg>
